<svg><symbol id="circle" xmlns="http://www.w3.org/2000/svg" viewBox="0 0 9 9.031"><defs><style>.cls-1{fill:#54cff0}</style></defs><circle id="circle.svg" class="cls-1" cx="4.5" cy="4.516" r="4.5"/></symbol><symbol id="phone" xmlns="http://www.w3.org/2000/svg" viewBox="0 0 20 20"><defs><style/></defs><path id="phone" d="M1292.66 35.945a.768.768 0 00-.79.22c-.2.214-.42.427-.63.632l-.36.359a1.355 1.355 0 01-2.04.007c-1.02-1.015-2.04-2.03-3.01-3.016a1.349 1.349 0 010-2.011c.32-.328.65-.666 1-.994a.755.755 0 00.22-.81 8.7 8.7 0 00-3.48-5.261.7.7 0 00-1-.024 8.208 8.208 0 00-3.57 6.8 8 8 0 002.36 5.638l.26.263c1.36 1.391 2.77 2.83 4.23 4.163a7.69 7.69 0 007.31 1.846 8.113 8.113 0 004.82-3.348.719.719 0 00.01-.908 8.74 8.74 0 00-5.33-3.556zm3.92 4.143a6.708 6.708 0 01-4.53 2.554 7.683 7.683 0 01-.87.051 6.745 6.745 0 01-4.9-2.119c-.68-.674-1.35-1.348-2.02-2.022-.61-.606-1.22-1.212-1.82-1.818a6.722 6.722 0 01-2.1-5.634 6.616 6.616 0 012.58-4.687.2.2 0 01.25 0 6.884 6.884 0 012.01 2.521 5.554 5.554 0 01.25.636c.06.153.12.311.18.46a.529.529 0 01-.15.645c-.07.082-.15.164-.23.246a4.9 4.9 0 00-.73.838 2.559 2.559 0 00.35 3.267 79.625 79.625 0 003.41 3.331 2.568 2.568 0 003.16.029c.19-.154.37-.326.54-.491.14-.135.29-.273.44-.4a.6.6 0 01.48-.138 7.312 7.312 0 013.71 2.487.194.194 0 01-.01.243zm-3.61-9.764a.634.634 0 00.76-.134c.96-.957 1.76-1.753 2.5-2.5a.787.787 0 00.23-.494.608.608 0 00-.18-.439.66.66 0 00-.97.024c-1.01 1-1.78 1.771-2.49 2.507a1.126 1.126 0 00-.19.325l-.06.141a.735.735 0 00.4.569zm-3.12-1.628a.656.656 0 00.65-.744V24.74a.653.653 0 00-.65-.739.657.657 0 00-.65.739v3.215a.667.667 0 00.65.745zm8.45 3.8q-.795-.005-1.62-.005h-1.66a.646.646 0 00-.71.647.632.632 0 00.7.646h3.28a.633.633 0 00.71-.639.644.644 0 00-.7-.645z" transform="translate(-1279 -24)"/></symbol><symbol id="envelope" xmlns="http://www.w3.org/2000/svg" viewBox="0 0 22 20"><defs><style>.cls-1{fill:#fff;fill-rule:evenodd}</style></defs><path id="envelope" class="cls-1" d="M1414.95 44h-8.88a1.954 1.954 0 01-2.06-1.985q-.015-4.993-.01-9.985a2.126 2.126 0 011.09-1.815c2.35-1.581 4.69-3.171 7.04-4.756.5-.341 1-.686 1.51-1.018a2.312 2.312 0 012.78.05c2.73 1.851 5.45 3.715 8.21 5.527a2.734 2.734 0 011.37 2.556c-.06 3.139-.01 6.281 0 9.421a2.019 2.019 0 01-2.01 2c-3.01.005-6.03.005-9.04.005zm9.59-12.311a4.511 4.511 0 00-.38-.329q-4.29-2.9-8.59-5.8a.935.935 0 00-1.19.02c-2.8 1.9-5.61 3.784-8.42 5.677-.17.113-.32.251-.51.4a2.96 2.96 0 00.28.224c2.14 1.392 4.28 2.775 6.41 4.182a.527.527 0 00.69-.051c2.04-1.319 2.3-1.325 4.31 0a.594.594 0 00.78 0c1.93-1.272 3.87-2.525 5.81-3.784.26-.173.51-.343.81-.541zm-.01 10.811c-.21-.171-.31-.263-.42-.335q-4.185-2.737-8.38-5.468a1.018 1.018 0 00-1.51.018q-3.27 2.134-6.54 4.272c-.71.462-1.42.927-2.12 1.392 0 .047.01.1.01.144a3.243 3.243 0 00.67.144q8.745.012 17.5 0a4.332 4.332 0 00.79-.167zm-5.76-5.437c1.97 1.286 3.87 2.527 5.81 3.79v-7.57c-1.96 1.277-3.86 2.509-5.81 3.779zm-13.35 3.78l5.79-3.783-5.79-3.766v7.548z" transform="translate(-1404 -24)"/></symbol></svg>