<svg xmlns="http://www.w3.org/2000/svg" width="22" height="20" viewBox="0 0 22 20">
  <defs>
    <style>
      .cls-1 {
        fill: #fff;
        fill-rule: evenodd;
      }
    </style>
  </defs>
  <path id="envelope" class="cls-1" d="M1414.95,44h-8.88a1.954,1.954,0,0,1-2.06-1.985q-0.015-4.993-.01-9.985a2.126,2.126,0,0,1,1.09-1.815c2.35-1.581,4.69-3.171,7.04-4.756,0.5-.341,1-0.686,1.51-1.018a2.312,2.312,0,0,1,2.78.05c2.73,1.851,5.45,3.715,8.21,5.527a2.734,2.734,0,0,1,1.37,2.556c-0.06,3.139-.01,6.281,0,9.421a2.019,2.019,0,0,1-2.01,2C1420.98,44,1417.96,44,1414.95,44Zm9.59-12.311a4.511,4.511,0,0,0-.38-0.329q-4.29-2.9-8.59-5.8a0.935,0.935,0,0,0-1.19.02c-2.8,1.9-5.61,3.784-8.42,5.677-0.17.113-.32,0.251-0.51,0.4a2.96,2.96,0,0,0,.28.224c2.14,1.392,4.28,2.775,6.41,4.182a0.527,0.527,0,0,0,.69-0.051c2.04-1.319,2.3-1.325,4.31,0a0.594,0.594,0,0,0,.78,0c1.93-1.272,3.87-2.525,5.81-3.784C1423.99,32.055,1424.24,31.885,1424.54,31.687ZM1424.53,42.5c-0.21-.171-0.31-0.263-0.42-0.335q-4.185-2.737-8.38-5.468a1.018,1.018,0,0,0-1.51.018q-3.27,2.134-6.54,4.272c-0.71.462-1.42,0.927-2.12,1.392,0,0.047.01,0.1,0.01,0.144a3.243,3.243,0,0,0,.67.144q8.745,0.012,17.5,0A4.332,4.332,0,0,0,1424.53,42.5Zm-5.76-5.437c1.97,1.286,3.87,2.527,5.81,3.79V33.283C1422.62,34.56,1420.72,35.792,1418.77,37.062Zm-13.35,3.78,5.79-3.783-5.79-3.766v7.548Z" transform="translate(-1404 -24)"/>
</svg>
