<svg xmlns="http://www.w3.org/2000/svg" width="20" height="20" viewBox="0 0 20 20">
  <defs>
    <style>
      .cls-1 {
        fill: #fff;
        fill-rule: evenodd;
      }
    </style>
  </defs>
  <path id="phone" class="cls-1" d="M1292.66,35.945a0.768,0.768,0,0,0-.79.22c-0.2.214-.42,0.427-0.63,0.632l-0.36.359a1.355,1.355,0,0,1-2.04.007c-1.02-1.015-2.04-2.03-3.01-3.016a1.349,1.349,0,0,1,0-2.011c0.32-.328.65-0.666,1-0.994a0.755,0.755,0,0,0,.22-0.81,8.7,8.7,0,0,0-3.48-5.261,0.7,0.7,0,0,0-1-.024,8.208,8.208,0,0,0-3.57,6.8,8,8,0,0,0,2.36,5.638l0.26,0.263c1.36,1.391,2.77,2.83,4.23,4.163a7.69,7.69,0,0,0,7.31,1.846,8.113,8.113,0,0,0,4.82-3.348,0.719,0.719,0,0,0,.01-0.908A8.74,8.74,0,0,0,1292.66,35.945Zm3.92,4.143a6.708,6.708,0,0,1-4.53,2.554,7.683,7.683,0,0,1-.87.051,6.745,6.745,0,0,1-4.9-2.119c-0.68-.674-1.35-1.348-2.02-2.022-0.61-.606-1.22-1.212-1.82-1.818a6.722,6.722,0,0,1-2.1-5.634,6.616,6.616,0,0,1,2.58-4.687,0.2,0.2,0,0,1,.25,0,6.884,6.884,0,0,1,2.01,2.521,5.554,5.554,0,0,1,.25.636c0.06,0.153.12,0.311,0.18,0.46a0.529,0.529,0,0,1-.15.645c-0.07.082-.15,0.164-0.23,0.246a4.9,4.9,0,0,0-.73.838,2.559,2.559,0,0,0,.35,3.267c1.01,1.055,2.13,2.145,3.41,3.331a2.568,2.568,0,0,0,3.16.029c0.19-.154.37-0.326,0.54-0.491,0.14-.135.29-0.273,0.44-0.4a0.6,0.6,0,0,1,.48-0.138,7.312,7.312,0,0,1,3.71,2.487A0.194,0.194,0,0,1,1296.58,40.087Zm-3.61-9.764a0.634,0.634,0,0,0,.76-0.134c0.96-.957,1.76-1.753,2.5-2.5a0.787,0.787,0,0,0,.23-0.494,0.608,0.608,0,0,0-.18-0.439,0.66,0.66,0,0,0-.97.024c-1.01,1-1.78,1.771-2.49,2.507a1.126,1.126,0,0,0-.19.325l-0.06.141A0.735,0.735,0,0,0,1292.97,30.323Zm-3.12-1.628h0a0.656,0.656,0,0,0,.65-0.744v-1.59h0V24.74a0.653,0.653,0,0,0-.65-0.739h0a0.657,0.657,0,0,0-.65.739v3.215A0.667,0.667,0,0,0,1289.85,28.7Zm8.45,3.8q-0.795-.005-1.62-0.005c-0.54,0-1.09,0-1.66,0a0.646,0.646,0,0,0-.71.647,0.632,0.632,0,0,0,.7.646c0.38,0,.76,0,1.12,0h2.16a0.633,0.633,0,0,0,.71-0.639A0.644,0.644,0,0,0,1298.3,32.5Z" transform="translate(-1279 -24)"/>
</svg>
